<svg width="507" height="110" viewBox="0 0 507 110" fill="none" xmlns="http://www.w3.org/2000/svg">
<path d="M426.289 24.0338L472.13 27.9248L465.099 37.9714L464.656 38.6043L465.415 38.7492L501.369 45.6184L478.93 54.5353L477.761 55L478.93 55.4647L501.369 64.3816L465.415 71.2508L464.656 71.3957L465.099 72.0286L472.13 82.0752L426.289 85.9662L426.096 85.9826L425.964 86.1246L416.227 96.6336L366.305 96.8919L366.22 96.8924L366.14 96.9209L340.134 106.177L292.714 102.708L292.653 102.703L292.592 102.714L253.5 109.493L214.408 102.714L214.347 102.703L214.286 102.708L166.866 106.177L140.86 96.9209L140.78 96.8924L140.695 96.8919L90.7728 96.6336L81.0357 86.1246L80.9041 85.9826L80.7112 85.9662L34.8701 82.0752L41.9009 72.0286L42.3438 71.3957L41.5851 71.2508L5.63066 64.3816L28.0697 55.4647L29.2389 55L28.0697 54.5353L5.63066 45.6184L41.5851 38.7492L42.3438 38.6043L41.9009 37.9714L34.8701 27.9248L80.7112 24.0338L80.9041 24.0174L81.0357 23.8754L90.7728 13.3664L140.695 13.1081L140.78 13.1076L140.86 13.0791L166.866 3.82325L214.286 7.29233L214.347 7.29682L214.408 7.28631L253.5 0.507463L292.592 7.28631L292.653 7.29682L292.714 7.29233L340.134 3.82325L366.14 13.0791L366.22 13.1076L366.305 13.1081L416.227 13.3664L425.964 23.8754L426.096 24.0174L426.289 24.0338Z" fill="#F9F8F3" stroke="#3F3F3F"/>
<path d="M75.9618 48.0554L75.1029 47.9188C75.4931 46.7318 75.7764 45.8013 75.9527 45.1271L69.4035 45.7001C69.9796 46.6378 70.3968 47.5071 70.6551 48.3079L69.7278 48.6008L75.9618 48.0554ZM70.3596 42.5108L70.2003 40.6897L63.1258 41.3086L62.8684 38.3667L69.9429 37.7478L69.7591 35.6464L73.9618 35.2787L74.1456 37.3801L81.5704 36.7305L81.8278 39.6724L74.403 40.322L74.5623 42.1431L84.1935 41.3005L84.4631 44.3825L79.525 44.8145L80.4189 44.9481C79.9403 45.931 79.4702 46.8779 79.0088 47.7888L84.3672 47.32L84.6307 50.3319L75.3498 51.1439L75.4907 52.755L83.4058 52.0625L83.6632 55.0044L75.7481 55.6968L75.8952 57.3779L85.2462 56.5598L85.5189 59.6768L76.1679 60.4949L76.3763 62.8764L72.1736 63.2441L71.9652 60.8626L63.0345 61.6439L62.7618 58.5269L71.6925 57.7456L71.5454 56.0645L64.0506 56.7202L63.7932 53.7784L71.288 53.1226L71.1471 51.5116L62.2514 52.2899L61.9879 49.2779L66.7159 48.8643C66.4302 48.0188 65.9749 47.1175 65.3501 46.1606L65.8312 46.0126L61.1732 46.4201L60.9036 43.3381L70.3596 42.5108ZM61.6027 40.8419L58.8101 44.0154C57.6217 42.8018 55.8307 41.5586 53.4372 40.2858C53.2169 40.1875 53.0082 40.0881 52.8112 39.9877L55.4152 37.0778C57.8136 38.1384 59.7746 39.3079 61.298 40.5862C61.4229 40.6694 61.5245 40.7546 61.6027 40.8419ZM60.9455 47.8516L58.2321 51.124C57.0245 49.9592 55.1442 48.7709 52.5914 47.5591C52.3944 47.4587 52.2101 47.369 52.0385 47.2899L54.5662 44.3161C57.321 45.4161 59.4094 46.5627 60.8313 47.7558C60.8821 47.7984 60.9201 47.8303 60.9455 47.8516ZM60.741 52.7749L61.5285 61.7757C63.0199 63.7627 65.5746 64.7273 69.1927 64.6695C69.4049 64.6745 69.5927 64.6698 69.7561 64.6555C74.6076 64.4428 79.7965 63.9183 85.3227 63.0819C85.881 63.0095 86.3916 62.9295 86.8545 62.842C86.3274 64.3468 86.0074 65.7982 85.8944 67.1961C80.3153 67.9666 75.0417 68.4632 70.0735 68.6862C66.3447 68.8242 63.4653 68.1821 61.4352 66.7598C60.9315 66.3804 60.4597 65.9629 60.0199 65.5073C58.297 67.3285 56.7309 68.9242 55.3216 70.2944L52.9103 66.1293C54.5675 64.9021 56.0591 63.6658 57.3853 62.4205L56.9165 57.0621L52.889 57.4144L52.5458 53.4919L60.741 52.7749Z" fill="#3F3F3F"/>
<path d="M138.005 55.9592C137.721 61.8868 137.968 64.9786 138.746 65.2349C138.835 65.2898 138.981 64.832 139.184 63.8616C139.386 62.8911 139.567 61.7659 139.726 60.4858C140.515 62.2253 141.197 63.4378 141.772 64.1233C141.287 66.7159 140.585 68.419 139.667 69.2327C138.748 70.0464 137.682 70.1296 136.469 69.4823C136.018 69.2546 135.626 68.891 135.294 68.3913C134.94 67.8663 134.673 67.1489 134.494 66.2392C134.291 65.3275 134.135 64.4198 134.026 63.5162C133.892 62.6339 133.819 61.4512 133.807 59.968C133.819 58.4868 133.839 57.1828 133.867 56.056C133.895 54.9292 133.97 53.4064 134.09 51.4878C134.235 49.5712 134.36 48.0058 134.466 46.7917C134.547 45.5989 134.682 43.9168 134.872 41.7454L130.599 41.3716L129.807 50.8307L133.414 51.1463L133.065 55.1389L129.458 54.8233L128.278 68.3069L124.321 67.9607L125.5 54.477L121.718 54.1461L122.067 50.1535L125.85 50.4845L126.642 41.0253L123.455 40.7465L123.81 36.6839L139.57 38.0627C138.81 44.0662 138.288 50.0317 138.005 55.9592ZM112.328 67.0879L108.755 66.7753L109.825 54.5525L120.717 55.5054L119.77 66.3274L112.45 65.687L112.328 67.0879ZM122.877 44.1192L109.254 42.9272L109.548 39.5651L123.172 40.757L122.877 44.1192ZM121.261 48.8831L110.509 47.9424L110.794 44.6853L121.546 45.626L121.261 48.8831ZM122.014 39.0676L111.472 38.1453L111.757 34.8882L122.299 35.8105L122.014 39.0676ZM120.838 53.7162L110.086 52.7755L110.365 49.5885L121.117 50.5292L120.838 53.7162ZM113.103 58.2272L112.741 62.3598L116.454 62.6846L116.815 58.552L113.103 58.2272Z" fill="#3F3F3F"/>
<path d="M187.862 51.781L187.669 49.5746L171.313 51.0055L171.506 53.2119L187.862 51.781ZM172.49 64.4542L188.846 63.0232L188.634 60.6067L172.279 62.0376L172.49 64.4542ZM188.349 57.3496L188.144 55.0031L171.788 56.434L171.994 58.7805L188.349 57.3496ZM195.416 42.9327L181.793 44.1246C181.683 44.4871 181.505 45.0085 181.259 45.6888C181.126 46.0533 181.031 46.3087 180.973 46.4549L191.795 45.5081L193.768 68.0626L189.32 68.4517L189.173 66.7706L172.818 68.2016L172.965 69.8826L168.762 70.2503L166.789 47.6959L176.245 46.8686C176.398 46.1964 176.531 45.4319 176.644 44.575L163.021 45.767L162.674 41.8094L170.905 41.0894C170.322 40.3405 169.361 39.307 168.022 37.989L171.686 35.9039C173.335 37.2654 174.614 38.5768 175.524 39.8382L174.022 40.8167L182.217 40.0997C183.28 38.2657 184.06 36.5623 184.558 34.9895L189.553 35.6112C188.614 37.2461 187.768 38.6024 187.015 39.6799L195.07 38.9752L195.416 42.9327Z" fill="#3F3F3F"/>
<path d="M223.608 34.6661L227.558 36.3174C226.298 38.8892 224.896 41.331 223.352 43.6428L221.22 68.0184L217.192 67.6661L218.77 49.6295C218.278 50.151 217.478 50.9516 216.372 52.0312C216.039 50.7316 215.429 49.2313 214.543 47.5304C214.525 47.4583 214.506 47.4096 214.485 47.3842C217.462 44.8214 220.088 41.428 222.363 37.2039C222.814 36.3494 223.229 35.5034 223.608 34.6661ZM247.887 54.0473L247.522 58.2149L238.346 57.4121L237.292 69.4599L232.984 69.083L234.038 57.0353L224.372 56.1896L224.737 52.0219L234.403 52.8676L234.942 46.7036L230.565 46.3206C229.753 48.0612 228.883 49.5379 227.954 50.7506C226.945 49.9094 225.767 49.1241 224.419 48.3945C226.498 45.8708 228.253 42.0835 229.683 37.0327L233.739 38.2698C233.475 39.1407 233.005 40.4759 232.33 42.2755L235.307 42.536L235.874 36.0568L240.182 36.4337L239.615 42.9128L247.11 43.5685L246.745 47.7362L239.25 47.0805L238.711 53.2445L247.887 54.0473Z" fill="#3F3F3F"/>
<path d="M266.11 57.9274L269.947 58.2269C269.775 62.171 269.207 65.3615 268.244 67.7985C267.109 67.192 265.903 66.7211 264.627 66.3857C265.516 64.4493 266.01 61.6299 266.11 57.9274ZM274.945 58.072L278.168 56.5901C279.667 58.9293 280.8 61.1241 281.567 63.1744L278.115 64.8528C277.501 62.9537 276.445 60.6934 274.945 58.072ZM288.095 64.3678L293.138 63.9266C293.908 63.8592 294.394 63.4991 294.596 62.8462C294.794 62.1466 294.846 60.5893 294.752 58.1742C295.792 58.7655 297.161 59.2221 298.86 59.5441C298.872 62.9074 298.467 65.1425 297.647 66.2495C296.905 67.1849 295.635 67.7312 293.837 67.8885L287.919 68.4064C285.514 68.6168 283.882 68.2537 283.024 67.3171C282.32 66.5317 281.882 65.1584 281.711 63.1971L280.96 54.6166L277.841 56.4776C277.687 56.0676 277.384 55.4236 276.93 54.5457L274.421 54.9064L275.711 69.6508L271.648 70.0063L270.38 55.507L264.635 56.3978L263.887 52.6871L266.469 52.3553C267.247 51.2991 267.802 50.5095 268.132 49.9865C267.069 48.8562 265.466 47.4789 263.324 45.8547L264.958 42.7474L265.854 43.3042C266.734 41.5333 267.609 39.2923 268.477 36.5813L272.471 37.8552C270.524 41.6957 269.213 44.1867 268.537 45.3281C268.714 45.4773 269.238 45.949 270.107 46.7435C271.476 44.3652 272.592 42.1972 273.456 40.2394L277.257 41.7419C275.129 45.3866 272.929 48.7434 270.657 51.8125L274.981 51.2225C274.76 50.8419 274.221 50.0655 273.366 48.8935L276.389 47.1467C278.402 49.7232 279.912 52.0498 280.917 54.1263L280.414 48.3826L291.096 47.4481L290.502 40.6537L278.979 41.6618L278.627 37.6342L294.457 36.2493L295.931 53.0951L291.623 53.472L291.446 51.4407L285.036 52.0014L285.98 62.7883C286.058 63.6755 286.291 64.1845 286.678 64.3153C286.969 64.4075 287.441 64.425 288.095 64.3678Z" fill="#3F3F3F"/>
<path d="M327.658 42.4314L336.414 43.1974C334.726 41.7793 333.342 40.3878 332.262 39.0228C331.005 40.2069 329.471 41.3431 327.658 42.4314ZM325.409 45.5519L325.58 43.5907C323.045 44.8746 320.245 45.9472 317.182 46.8085C316.653 45.327 315.978 44.0328 315.157 42.9258C319.527 41.92 323.503 40.174 327.085 37.6876C328.313 36.8304 329.34 35.9792 330.167 35.134L334.58 35.5201C337.715 39.4881 341.913 42.5963 347.174 44.8447C347.718 45.0805 348.263 45.3046 348.809 45.5171C347.754 46.5541 346.765 47.7733 345.843 49.1748C343.245 47.9359 340.685 46.4062 338.163 44.5856L337.982 46.6519L325.409 45.5519ZM340.025 48.3129L342.673 50.3091C341.177 52.8839 339.147 55.5177 336.582 58.2107C336.481 58.2959 336.391 58.3821 336.313 58.4694C335.2 57.478 334.15 56.7039 333.163 56.147C334.32 55.0248 335.506 53.5758 336.72 51.7998L319.559 50.2984L319.871 46.7261L339.309 48.4267L340.025 48.3129ZM325.464 55.4029L328.403 52.872C330.871 54.2408 332.879 55.7692 334.425 57.4573C334.617 57.6858 334.787 57.8889 334.936 58.0667L331.766 60.8243C330.74 59.37 329.041 57.8214 326.667 56.1786C326.246 55.883 325.845 55.6244 325.464 55.4029ZM316.669 66.3851L313.305 63.6911C315.647 62.202 317.389 59.7665 318.532 56.3845C318.566 56.2698 318.598 56.1667 318.63 56.0754L322.34 57.6352C320.888 61.8606 318.998 64.7773 316.669 66.3851ZM328.671 64.3296L332.909 64.7004C333.563 64.7576 334.003 64.5609 334.231 64.1102C334.461 63.6363 334.679 62.6202 334.886 61.062C335.667 61.8126 336.825 62.4315 338.359 62.9185C338.427 62.948 338.472 62.9638 338.496 62.9658C337.98 65.6264 337.234 67.3021 336.256 67.9929C335.506 68.492 334.408 68.6782 332.96 68.5515L327.847 68.1042C325.442 67.8938 323.943 67.2803 323.35 66.2638C322.899 65.4951 322.745 64.3052 322.886 62.6941L323.391 56.9154L327.629 57.2862L327.126 63.0299C327.075 63.6136 327.208 63.9781 327.525 64.1234C327.752 64.2139 328.134 64.2826 328.671 64.3296ZM337.267 59.2587L340.985 57.5019C343.603 60.3894 345.417 63.0537 346.426 65.4948C346.542 65.7872 346.647 66.067 346.741 66.334L342.75 68.3846C342.14 66.2138 340.673 63.6268 338.348 60.6237C337.989 60.1454 337.629 59.6904 337.267 59.2587Z" fill="#3F3F3F"/>
<path d="M393.145 45.4843L397.02 47.8273C394.75 50.3787 392.063 52.8841 388.961 55.3435C391.422 58.7279 394.931 61.4559 399.488 63.5275C398.381 64.5889 397.534 65.8041 396.948 67.1729C396.871 67.3678 396.804 67.5384 396.746 67.6846C391.296 64.8206 387.237 61.1879 384.57 56.7864C383 54.1711 381.654 50.8892 380.533 46.9407C379.203 48.6804 377.779 50.2872 376.261 51.761L377.26 63.1783C379.579 62.5284 382.447 61.701 385.865 60.6962L386.618 64.8652C384.464 65.5242 381.208 66.4913 376.849 67.7667C373.455 68.7695 371.047 69.4859 369.626 69.9161L367.983 65.6486C368.605 65.5001 369.628 65.2341 371.054 64.8506C371.927 64.6095 372.582 64.4346 373.019 64.3257L372.226 55.2549C370.77 56.3703 369.045 57.4859 367.048 58.6017C366.339 57.4874 365.461 56.329 364.415 55.1265C368.426 53.1052 371.962 50.3608 375.023 46.8933C375.536 46.3073 376.004 45.737 376.426 45.1825L364.694 46.2089L364.335 42.1113L377.889 40.9255L377.438 35.7772L381.851 35.3911L382.302 40.5394L396.136 39.3291L396.494 43.4268L384.271 44.4961C385.04 47.3697 385.927 49.8448 386.932 51.9214C389.405 49.7993 391.476 47.6536 393.145 45.4843Z" fill="#3F3F3F"/>
<path d="M420.12 51.9861L423.657 52.2956L424.034 47.9878L420.532 47.6814L420.449 48.627C420.322 50.0746 420.213 51.1943 420.12 51.9861ZM424.745 39.8626L421.243 39.5562L420.878 43.7239L424.38 44.0303L424.745 39.8626ZM429.046 36.2863L426.634 63.849C426.477 65.6468 426.01 66.8176 425.233 67.3613C425.083 67.4658 424.946 67.548 424.823 67.6078C423.821 68.0377 422.129 68.1485 419.747 67.9402C419.734 66.4803 419.491 65.0944 419.017 63.7826C418.996 63.7572 418.986 63.7328 418.988 63.7095C419.477 63.7757 420.491 63.8762 422.032 64.011C422.41 63.997 422.627 63.8043 422.683 63.4327L423.305 56.3232L419.557 55.9953C418.745 60.9825 417.558 64.8665 415.997 67.6473C415.039 66.7636 413.997 66.0372 412.87 65.4681C412.826 65.4407 412.781 65.4132 412.736 65.3858C414.548 62.1564 415.803 56.8197 416.502 49.3757C416.532 49.0254 416.564 48.6635 416.597 48.29L417.733 35.2966L429.046 36.2863ZM433.645 53.0988L432.545 65.6719C434.138 64.9408 435.704 63.8426 437.244 62.3775C435.846 59.8083 434.716 56.7216 433.855 53.1172L433.645 53.0988ZM442.575 53.8801L437.462 53.4328C438.01 55.5041 438.769 57.4526 439.739 59.2784C440.894 57.6385 441.839 55.8391 442.575 53.8801ZM444.988 50.1034L447.474 51.1326C446.246 55.7541 444.46 59.6327 442.115 62.7684C443.605 64.5691 445.269 65.9852 447.108 67.0166C445.946 67.9266 444.962 68.958 444.155 70.1108C442.337 68.846 440.746 67.3893 439.385 65.741C437.851 67.136 436.175 68.2833 434.355 69.1828C433.931 68.1106 433.314 67.092 432.505 66.1272L432.247 69.069L428.185 68.7136L431.004 36.4929L447.499 37.9361L446.896 44.8355C446.763 46.3532 446.301 47.3362 445.508 47.7845C445.261 47.9275 444.993 48.0334 444.704 48.1023C443.644 48.386 441.573 48.393 438.491 48.1234C438.431 47.2005 438.116 45.9613 437.546 44.4058C439.427 44.688 440.919 44.842 442.023 44.868C442.498 44.8155 442.759 44.6501 442.807 44.372L443.059 41.5001L434.723 40.7709L433.979 49.2814L444.345 50.1883L444.988 50.1034Z" fill="#3F3F3F"/>
</svg>
